<svg id="Calque_1" data-name="Calque 1" xmlns="http://www.w3.org/2000/svg" viewBox="0 0 40 46"><defs><style>.cls-1{fill:#fff;}</style></defs><path class="cls-1" d="M14.28,5.12a.25.25,0,0,1-.1.37C.85,11.91.82,25.36,6.23,32.6a17.77,17.77,0,0,0,25.15,3.11A16.84,16.84,0,0,0,38,21.09c-.24-5.92-3.37-10.4-7.59-14.28A15.82,15.82,0,0,1,39.79,19.7C41.54,32,32,42,19.87,42A20.06,20.06,0,0,1,1.12,28.52c-.75-1.45-5-16.4,10.22-24.32A2.46,2.46,0,0,1,14.28,5.12Z"/><path class="cls-1" d="M30.52,28.65c0,.68-.31,1.23-.68,1.23H19.5c-.38,0-.68-.55-.68-1.24s.3-1.22.68-1.22H29.84C30.21,27.42,30.52,28,30.52,28.65Z"/><path class="cls-1" d="M19.35,21.09,11.9,15.14A1.49,1.49,0,1,0,10,17.46l6,4.79-6,4.8a1.49,1.49,0,0,0,1.86,2.32l7.45-5.95A1.5,1.5,0,0,0,19.35,21.09Z"/></svg>