<svg id="Calque_1" data-name="Calque 1" xmlns="http://www.w3.org/2000/svg" viewBox="0 0 40 46"><defs><style>.cls-1{fill:#fff;}</style></defs><path class="cls-1" d="M14.28,5.12a.25.25,0,0,1-.1.37C.85,11.91.82,25.36,6.23,32.6a17.77,17.77,0,0,0,25.15,3.11A16.84,16.84,0,0,0,38,21.09c-.24-5.92-3.37-10.4-7.59-14.28A15.82,15.82,0,0,1,39.79,19.7C41.54,32,32,42,19.87,42A20.06,20.06,0,0,1,1.12,28.52c-.75-1.45-5-16.4,10.22-24.32A2.46,2.46,0,0,1,14.28,5.12Z"/><g id="V2PJP8"><path class="cls-1" d="M19.19,22.93c-.26-.13-.52-.24-.76-.39a2.91,2.91,0,1,1,4.43-3,2.86,2.86,0,0,1-1.64,3.17.59.59,0,0,0-.42.67q0,4.53,0,9.06a.81.81,0,0,1-.89.89.78.78,0,0,1-.72-.73c0-.15,0-.31,0-.47V22.93Z"/><path class="cls-1" d="M10,19.87a8.72,8.72,0,0,1,1.93-5.77,10.47,10.47,0,0,1,1.38-1.28.63.63,0,0,1,1,.14.66.66,0,0,1-.25.94,6.18,6.18,0,0,0-2.45,3.7,9,9,0,0,0,.5,6,7.37,7.37,0,0,0,2,2.75.65.65,0,1,1-.82,1,8.73,8.73,0,0,1-2.31-3A10.2,10.2,0,0,1,10,19.87Z"/><path class="cls-1" d="M30,20.35a8.69,8.69,0,0,1-2,5.82,11.15,11.15,0,0,1-1.4,1.25.63.63,0,0,1-1-.61.79.79,0,0,1,.26-.44,6.47,6.47,0,0,0,2.67-4.45,8.75,8.75,0,0,0-1.3-6.53,11.1,11.1,0,0,0-1.37-1.54.68.68,0,0,1-.13-.95.65.65,0,0,1,.94-.06,8.81,8.81,0,0,1,2.69,3.91A10,10,0,0,1,30,20.35Z"/><path class="cls-1" d="M26.82,20.22A5.87,5.87,0,0,1,26.11,23a4.66,4.66,0,0,1-1.53,1.68.65.65,0,0,1-.71,0,.57.57,0,0,1-.31-.57.75.75,0,0,1,.23-.48,3.66,3.66,0,0,0,1.54-2.21,4.88,4.88,0,0,0-.16-3,4.36,4.36,0,0,0-1.33-1.89.65.65,0,1,1,.81-1,5.61,5.61,0,0,1,2,3.3A12,12,0,0,1,26.82,20.22Z"/><path class="cls-1" d="M15.78,15.35a.7.7,0,0,1,.63.45.62.62,0,0,1-.2.72c-1.73,1.26-2,3-1.49,4.91a4.11,4.11,0,0,0,1.42,2.18.66.66,0,0,1,.18.95.65.65,0,0,1-1,.06,5.78,5.78,0,0,1-2.08-3.93,5.71,5.71,0,0,1,.81-3.8,4.52,4.52,0,0,1,1.3-1.35A3.17,3.17,0,0,1,15.78,15.35Z"/></g></svg>