<svg id="Calque_1" data-name="Calque 1" xmlns="http://www.w3.org/2000/svg" viewBox="0 0 40 46"><defs><style>.cls-1{fill:#fff;}</style></defs><path class="cls-1" d="M14.28,5.12a.25.25,0,0,1-.1.37C.85,11.91.82,25.36,6.23,32.6a17.77,17.77,0,0,0,25.15,3.11A16.84,16.84,0,0,0,38,21.09c-.24-5.92-3.37-10.4-7.59-14.28A15.82,15.82,0,0,1,39.79,19.7C41.54,32,32,42,19.87,42A20.06,20.06,0,0,1,1.12,28.52c-.75-1.45-5-16.4,10.22-24.32A2.46,2.46,0,0,1,14.28,5.12Z"/><path class="cls-1" d="M21.92,33.43h0a1.56,1.56,0,0,1-.09-2.09,13.12,13.12,0,0,0,0-16.66,1.55,1.55,0,0,1,.08-2.09h0a1.56,1.56,0,0,1,2.31.09,16.26,16.26,0,0,1,0,20.68A1.56,1.56,0,0,1,21.92,33.43Z"/><path class="cls-1" d="M17.45,29h0A1.54,1.54,0,0,1,17.26,27a6.92,6.92,0,0,0,1.29-4,6.81,6.81,0,0,0-1.23-3.93,1.59,1.59,0,0,1,.12-2h0a1.57,1.57,0,0,1,2.41.2A10,10,0,0,1,21.68,23a10.12,10.12,0,0,1-1.82,5.76A1.57,1.57,0,0,1,17.45,29Z"/><circle class="cls-1" cx="13.73" cy="23" r="1.68"/></svg>