<svg id="Calque_1" data-name="Calque 1" xmlns="http://www.w3.org/2000/svg" viewBox="0 0 40 46"><defs><style>.cls-1{fill:#fff;}</style></defs><path class="cls-1" d="M14.28,5.12a.25.25,0,0,1-.1.37C.85,11.91.82,25.36,6.23,32.6a17.77,17.77,0,0,0,25.15,3.11A16.84,16.84,0,0,0,38,21.09c-.24-5.92-3.37-10.4-7.59-14.28A15.82,15.82,0,0,1,39.79,19.7C41.54,32,32,42,19.87,42A20.06,20.06,0,0,1,1.12,28.52c-.75-1.45-5-16.4,10.22-24.32A2.46,2.46,0,0,1,14.28,5.12Z"/><path class="cls-1" d="M25.75,32.67v.83H14.25v-.83a.82.82,0,0,1,.82-.82h9.86A.82.82,0,0,1,25.75,32.67Z"/><path class="cls-1" d="M20,18.71a4.12,4.12,0,0,0-4.11,4.11v7.39h8.22V22.82A4.12,4.12,0,0,0,20,18.71Zm.82,9a.82.82,0,0,1-1.64,0V24.46a.82.82,0,0,1,1.64,0ZM20,22a.83.83,0,1,1,.82-.82A.82.82,0,0,1,20,22Z"/><path class="cls-1" d="M20,15.43a.82.82,0,0,0,.82-.82V9.68a.82.82,0,0,0-1.64,0v4.93A.82.82,0,0,0,20,15.43Z"/><path class="cls-1" d="M26.39,17.59l3.48-3.48A.82.82,0,0,0,28.71,13l-3.48,3.48a.82.82,0,0,0,1.16,1.16Z"/><path class="cls-1" d="M13.61,17.59a.82.82,0,0,0,1.16-1.16L11.29,13a.82.82,0,0,0-1.16,1.16Z"/><path class="cls-1" d="M27.9,20.43l1.52-.62a.82.82,0,0,0,.44-1.08.81.81,0,0,0-1.07-.44l-1.52.63A.82.82,0,0,0,26.83,20a.81.81,0,0,0,1.07.44Z"/><path class="cls-1" d="M12.73,18.92l-1.52-.63a.81.81,0,0,0-1.07.44.82.82,0,0,0,.44,1.08l1.52.62A.81.81,0,0,0,13.17,20a.82.82,0,0,0-.44-1.07Z"/><path class="cls-1" d="M16.1,15.55a.82.82,0,0,0,1.52-.63L17,13.4a.82.82,0,1,0-1.52.63Z"/><path class="cls-1" d="M22.83,16a.82.82,0,0,0,1.07-.44L24.53,14A.82.82,0,1,0,23,13.4l-.63,1.52A.82.82,0,0,0,22.83,16Z"/><path class="cls-1" d="M6.8,23.64h5a.82.82,0,0,0,0-1.64h-5a.82.82,0,1,0,0,1.64Z"/><path class="cls-1" d="M33.2,22h-5a.82.82,0,0,0,0,1.64h5a.82.82,0,0,0,0-1.64Z"/></svg>