<svg id="Calque_1" data-name="Calque 1" xmlns="http://www.w3.org/2000/svg" viewBox="0 0 40 46"><defs><style>.cls-1{fill:#fff;}.cls-2{fill:#383838;}</style></defs><path class="cls-1" d="M14.28,5.12a.25.25,0,0,1-.1.37C.85,11.91.82,25.36,6.23,32.6a17.77,17.77,0,0,0,25.15,3.11A16.84,16.84,0,0,0,38,21.09c-.24-5.92-3.37-10.4-7.59-14.28A15.82,15.82,0,0,1,39.79,19.7C41.54,32,32,42,19.87,42A20.06,20.06,0,0,1,1.12,28.52c-.75-1.45-5-16.4,10.22-24.32A2.46,2.46,0,0,1,14.28,5.12Z"/><path class="cls-1" d="M20,15.88l-7.53,6.38v9.66a1,1,0,0,0,1,1h3.67a.16.16,0,0,1,0-.09V27a.19.19,0,0,1,.2-.2h5.3a.19.19,0,0,1,.2.2v5.83a.16.16,0,0,1,0,.09h3.67a1,1,0,0,0,1-1V22.26Zm2.23,8.32a.2.2,0,0,1-.2.2H17.93a.2.2,0,0,1-.2-.2V20.07a.2.2,0,0,1,.2-.2h4.14a.2.2,0,0,1,.2.2ZM21,29.07a.67.67,0,1,0,.66.66A.66.66,0,0,0,21,29.07Z"/><polygon class="cls-1" points="27.49 13.88 27.49 16.91 26.13 15.75 26.13 13.88 27.49 13.88"/><path class="cls-1" d="M30,21.76a.68.68,0,0,1-1,.07l-8.58-7.36a.69.69,0,0,0-.88,0l-8.68,7.36a.68.68,0,1,1-.89-1l9.57-8.11a.67.67,0,0,1,.88,0L30,20.81A.67.67,0,0,1,30,21.76Z"/><path class="cls-2" d="M20.29,29.73a.67.67,0,0,1,.67-.66.67.67,0,0,1,0,1.33A.67.67,0,0,1,20.29,29.73Z"/><path class="cls-1" d="M21.62,29.73a.66.66,0,0,1-.66.67.67.67,0,1,1,0-1.33A.66.66,0,0,1,21.62,29.73Z"/></svg>