<svg id="Calque_1" data-name="Calque 1" xmlns="http://www.w3.org/2000/svg" viewBox="0 0 40 46"><defs><style>.cls-1{fill:#fff;}</style></defs><path class="cls-1" d="M12.71,5.33a.25.25,0,0,1-.06.37C0,13.34,1.2,26.74,7.26,33.44a17.76,17.76,0,0,0,25.33.75A16.82,16.82,0,0,0,37.81,19C37,13.14,33.49,9,28.93,5.5a15.85,15.85,0,0,1,10.54,12c2.89,12.1-5.64,22.89-17.75,24A20.09,20.09,0,0,1,1.79,29.86C.91,28.48-4.75,14,9.7,4.69A2.45,2.45,0,0,1,12.71,5.33Z"/><path class="cls-1" d="M29.85,26.53A10.81,10.81,0,1,1,14.25,13a11.4,11.4,0,0,0,7.63,14A11.34,11.34,0,0,0,29.85,26.53Z"/></svg>