<svg id="Calque_1" data-name="Calque 1" xmlns="http://www.w3.org/2000/svg" viewBox="0 0 40 46"><defs><style>.cls-1{fill:#fff;}</style></defs><path class="cls-1" d="M14,6.58a.25.25,0,0,1-.1.37C.54,13.37.51,26.82,5.92,34.06a17.77,17.77,0,0,0,25.15,3.11,16.84,16.84,0,0,0,6.61-14.62c-.23-5.92-3.37-10.4-7.58-14.28a15.84,15.84,0,0,1,9.38,12.89c1.75,12.31-7.75,22.26-19.92,22.26A20.09,20.09,0,0,1,.8,30C.06,28.53-4.22,13.58,11,5.66A2.46,2.46,0,0,1,14,6.58Z"/><path class="cls-1" d="M31.92,24.46a12.18,12.18,0,0,1-2.29,7.11,1.2,1.2,0,0,1-.56-1.76c.26-.59.59-1.15.8-1.76h-.7a2.13,2.13,0,0,1-1.82-1,2.09,2.09,0,0,1-.09-2.09l.23-.5a.61.61,0,0,0,.08-.32V23a.72.72,0,0,0-.72-.72,2.15,2.15,0,0,1-2.14-2.16v-.84a2.13,2.13,0,0,1,.63-1.51l.77-.78a.7.7,0,0,0,.17-.29l.21-.65A10.65,10.65,0,0,0,22.18,14l.41,1.21a2.16,2.16,0,0,1-2,2.85h-.86a.72.72,0,0,0-.73.71v.49a2.17,2.17,0,0,1-1.13,1.95A1.63,1.63,0,0,0,17,23.31l.21.43h.83a3.31,3.31,0,0,1,3,1.84,1.88,1.88,0,0,0,1.68,1H24a.72.72,0,0,1,.73.71v1.43a3.53,3.53,0,0,1-1.07,2.55,13.44,13.44,0,0,0-2.88,3.9s-1.11,2.42-2.27,0a9.53,9.53,0,0,1-1-4.18,1.22,1.22,0,0,0-.37-.89l-.85-.86a.69.69,0,0,1,0-1l.42-.43A1.25,1.25,0,0,0,17,26.38L16.26,25l-3.11-2.06a2.15,2.15,0,0,1-.71-2.78.77.77,0,0,0,0-.69A.81.81,0,0,0,12,19s-1-.21-1.36-.33S9.3,18,9.3,18a12.23,12.23,0,0,1,22.62,6.48Z"/></svg>